<svg xmlns:mydata="http://www.w3.org/2000/svg" mydata:contrastcolor="FF9E1B" mydata:template="Contrast" mydata:presentation="2.5" mydata:layouttype="undefined" mydata:specialfontid="undefined" mydata:id1="825" mydata:id2="387" mydata:companyname="Reviews" mydata:companytagline="" version="1.1" xmlns="http://www.w3.org/2000/svg" xmlns:xlink="http://www.w3.org/1999/xlink" viewBox="0 0 550 470" class="svg-primary-tile" style="transform: translate(-50%, -50%); width: 70%; height: auto; top: 50%; left: 50%;"><g fill="#101820" fill-rule="none" stroke="none" stroke-width="1" stroke-linecap="butt" stroke-linejoin="miter" stroke-miterlimit="10" stroke-dasharray="" stroke-dashoffset="0" font-family="none" font-weight="none" font-size="none" text-anchor="none" style="mix-blend-mode: normal"><g data-paper-data="{&quot;isGlobalGroup&quot;:true,&quot;bounds&quot;:{&quot;x&quot;:65.00000000000001,&quot;y&quot;:194.38359117026337,&quot;width&quot;:420,&quot;height&quot;:81.23281765947328}}"><g data-paper-data="{&quot;isPrimaryText&quot;:true}" fill-rule="nonzero"><path d="M184.52095,268.4354c0,0.00189 -0.00189,0.00189 0,0c-0.00189,3.96128 3.09298,7.18101 6.89536,7.18101h5.76978c0.13053,0 0.23647,-0.10594 0.23647,-0.23647v-6.94265c0,-0.00378 -0.00378,-0.00567 -0.00378,-0.00946v-48.22968c0,-0.00189 -0.00378,-0.00378 -0.00378,-0.00757c-0.00189,-1.5777 -0.51077,-3.02677 -1.34502,-4.21288c2.04496,-1.54933 4.58177,-2.48195 7.33991,-2.48195c3.28594,0 5.95895,2.67491 5.95895,5.95895v6.22758c0,6.98049 5.67898,12.65946 12.66136,12.65946c0.13053,0 0.23647,-0.10594 0.23647,-0.23647v-12.423c0,-6.98049 -5.67898,-12.66135 -12.66136,-12.66135h-6.19542c-2.86786,0 -5.50683,0.97046 -7.63313,2.58411c-1.26557,-1.56824 -3.14027,-2.58789 -5.25712,-2.58789h-5.76978c-0.13053,0 -0.23647,0.10594 -0.23647,0.23647v6.94265c0,0.00757 0.00757,0.01135 0.00757,0.01892z" data-paper-data="{&quot;glyphName&quot;:&quot;r&quot;,&quot;glyphIndex&quot;:0,&quot;firstGlyphOfWord&quot;:true,&quot;word&quot;:1}"></path><path d="M241.02529,275.61262c0.00567,0 0.00946,-0.00567 0.01702,-0.00567c0.00567,0 0.00946,0.00567 0.01513,0.00567h12.39084c6.98049,0 12.66135,-5.67898 12.66135,-12.65946v-12.423c0,-0.13053 -0.10594,-0.23647 -0.23647,-0.23647c-6.98049,0 -12.66135,5.67898 -12.66135,12.65946v6.22758c0,3.28594 -2.67491,5.95895 -5.95895,5.95895c-3.28405,0 -5.95895,-2.67302 -5.95895,-5.95895c0,-0.03027 -0.02081,-0.05108 -0.03216,-0.07756v-19.86507c1.78579,0.96289 3.82508,1.51149 5.99111,1.51149h6.19542c6.98049,0 12.66135,-5.67898 12.66135,-12.65946v-12.40786c0,-6.98049 -5.67898,-12.66135 -12.66136,-12.66135h-12.39084c-0.00567,0 -0.00946,0.00567 -0.01513,0.00757c-0.00567,0 -0.00946,-0.00757 -0.01702,-0.00757c-6.98049,0 -12.65946,5.67898 -12.65946,12.66136v37.27277c-0.00189,6.9767 5.67708,12.65757 12.65946,12.65757zM241.26175,219.52848c0.01135,-0.02648 0.03216,-0.04729 0.03216,-0.07756c0,-3.28594 2.67491,-5.95895 5.95895,-5.95895c3.28405,0 5.95895,2.67491 5.95895,5.95895v24.86302c0,3.28594 -2.67491,5.95895 -5.95895,5.95895c-2.17738,0 -4.22045,-0.58076 -5.99111,-1.58716z" data-paper-data="{&quot;glyphName&quot;:&quot;e&quot;,&quot;glyphIndex&quot;:1,&quot;word&quot;:1}"></path><path d="M272.09558,262.95694c0,6.98049 5.67898,12.65946 12.66136,12.65946h6.19542c0.02838,0 0.04729,-0.02081 0.07189,-0.03027c0.02459,0.00757 0.04351,0.03027 0.07189,0.03027h6.19542c6.98049,0 12.66135,-5.67898 12.66135,-12.65946v-42.77014c0,-0.00189 0.00189,-0.00378 0.00189,-0.00567v-6.94265c0,-0.13053 -0.10594,-0.23647 -0.23647,-0.23647h-5.76978c-3.80238,0 -6.89536,3.21973 -6.89536,7.17912c0,0.00189 0.00189,0.00378 0.00189,0.00567v48.99583c0,3.28594 -2.67302,5.95895 -5.95895,5.95895c-0.02838,0 -0.04729,0.02081 -0.07189,0.03027c-0.02459,-0.00757 -0.04351,-0.03027 -0.07189,-0.03027c-3.28594,0 -5.95895,-2.67302 -5.95895,-5.95895v-48.99583c0,-0.00189 0.00189,-0.00378 0.00189,-0.00567c0,-3.95939 -3.09298,-7.17912 -6.89536,-7.17912h-5.76978c-0.13053,0 -0.23647,0.10594 -0.23647,0.23647v6.94265c0,0.00189 0.00189,0.00378 0.00189,0.00567z" data-paper-data="{&quot;glyphName&quot;:&quot;v&quot;,&quot;glyphIndex&quot;:2,&quot;word&quot;:1}"></path><path d="M321.9694,213.01714h-2.38926c5.33468,-1.48501 9.2657,-6.37324 9.2657,-12.17329c0,-0.00189 -0.00189,-0.00189 -0.00189,-0.00378c0,-0.00567 0.00189,-0.00946 0.00189,-0.01513c0,-3.55078 -2.89057,-6.44134 -6.44134,-6.44134c-3.55078,0 -6.44134,2.89057 -6.44134,6.44134c0,3.55267 2.89057,6.44134 6.44134,6.44134c2.34764,0 4.38503,-1.27503 5.51061,-3.15541c-1.43204,5.12848 -6.13678,8.90627 -11.71549,8.90627c-0.13053,0 -0.23647,0.10594 -0.23647,0.23647v6.91049c-0.00189,0.01135 -0.01324,0.02081 -0.01324,0.03216v48.22968c0,0.00378 -0.00378,0.00757 -0.00378,0.01135c0,3.95939 3.09298,7.17912 6.89536,7.17912h5.76978c0.13053,0 0.23647,-0.10594 0.23647,-0.23647v-55.13828c0.00378,-0.01702 0.01892,-0.02838 0.01892,-0.0454c-0.00189,-3.9575 -3.09487,-7.17912 -6.89725,-7.17912z" data-paper-data="{&quot;glyphName&quot;:&quot;i&quot;,&quot;glyphIndex&quot;:3,&quot;word&quot;:1}"></path><path d="M347.54187,275.61262c0.00567,0 0.00946,-0.00567 0.01702,-0.00567c0.00567,0 0.00946,0.00567 0.01513,0.00567h12.39084c6.98049,0 12.66135,-5.67898 12.66135,-12.65946v-12.423c0,-0.13053 -0.10594,-0.23647 -0.23647,-0.23647c-6.98049,0 -12.66135,5.67898 -12.66135,12.65946v6.22758c0,3.28594 -2.67491,5.95895 -5.95895,5.95895c-3.28405,0 -5.95895,-2.67302 -5.95895,-5.95895c0,-0.03027 -0.02081,-0.05108 -0.03216,-0.07756v-19.86507c1.78579,0.96289 3.82508,1.51149 5.99111,1.51149h6.19542c6.98049,0 12.66135,-5.67898 12.66135,-12.65946v-12.40786c0,-6.98049 -5.67898,-12.66135 -12.66136,-12.66135h-12.39084c-0.00567,0 -0.00946,0.00567 -0.01513,0.00757c-0.00567,0 -0.00946,-0.00757 -0.01702,-0.00757c-6.98049,0 -12.65946,5.67898 -12.65946,12.66136v37.27277c-0.00189,6.9767 5.67708,12.65757 12.65946,12.65757zM347.77834,219.52848c0.01135,-0.02648 0.03216,-0.04729 0.03216,-0.07756c0,-3.28594 2.67491,-5.95895 5.95895,-5.95895c3.28405,0 5.95895,2.67491 5.95895,5.95895v24.86302c0,3.28594 -2.67491,5.95895 -5.95895,5.95895c-2.17738,0 -4.22045,-0.58076 -5.99111,-1.58716z" data-paper-data="{&quot;glyphName&quot;:&quot;e&quot;,&quot;glyphIndex&quot;:4,&quot;word&quot;:1}"></path><path d="M378.61216,262.95694c0,6.98049 5.67898,12.65946 12.66136,12.65946h6.19542c3.69266,0 7.01076,-1.59851 9.32624,-4.12776c2.31548,2.52924 5.63357,4.12776 9.32624,4.12776h6.19542c2.86786,0 5.50494,-0.96857 7.62935,-2.58221c1.26557,1.555 3.13271,2.56519 5.2382,2.56519h5.76978c0.13053,0 0.23647,-0.10594 0.23647,-0.23647v-6.9086c0.00189,-0.01324 0.01324,-0.02081 0.01324,-0.03405v-48.23914c0,-0.01702 -0.01513,-0.02648 -0.01702,-0.04162c-0.02081,-3.93858 -3.10244,-7.1375 -6.89158,-7.1375h-5.76978c-0.13053,0 -0.23647,0.10594 -0.23647,0.23647v6.94265c0,0.01702 0.01513,0.02838 0.01892,0.04351v48.15212c-0.00378,0.01702 -0.01892,0.02838 -0.01892,0.04351c0,1.59284 0.51644,3.05136 1.36394,4.24315c-2.04496,1.54933 -4.57988,2.48006 -7.33613,2.48006c-3.28594,0 -5.95895,-2.67302 -5.95895,-5.95895v-48.99772c0,-0.00189 0.00189,-0.00378 0.00189,-0.00567c0,-3.95939 -3.09298,-7.17912 -6.89536,-7.17912h-5.76978c-0.13053,0 -0.23647,0.10594 -0.23647,0.23647v6.94265c0,0.00189 0.00189,0.00189 0.00189,0.00567v42.77014c0,3.11757 1.13882,5.9722 3.01542,8.18174c-2.23035,2.45358 -5.43684,4.00669 -9.00653,4.00669c-3.28594,0 -5.95895,-2.67302 -5.95895,-5.95895v-48.99961c0,-0.00189 0.00189,-0.00378 0.00189,-0.00567c0,-3.95939 -3.09298,-7.17912 -6.89536,-7.17912h-5.76978c-0.13053,0 -0.23647,0.10594 -0.23647,0.23647v6.94265c0,0.00189 0.00189,0.00378 0.00189,0.00567z" data-paper-data="{&quot;glyphName&quot;:&quot;w&quot;,&quot;glyphIndex&quot;:5,&quot;word&quot;:1}"></path><path d="M472.33676,213.01714h-6.19542c-0.00567,0 -0.00946,0.00567 -0.01513,0.00757c-0.00567,0 -0.00946,-0.00757 -0.01702,-0.00757h-6.19542c-6.98049,0 -12.65946,5.67898 -12.65946,12.66136c0,6.98238 5.67898,12.66136 12.65946,12.66136c0.01513,0 0.02459,-0.01324 0.03972,-0.01702h6.15569c0.00567,0 0.00946,-0.00567 0.01702,-0.00567c0.00567,0 0.00946,0.00567 0.01513,0.00567c3.28594,0 5.95895,2.67302 5.95895,5.95895v24.89707c0,3.28594 -2.67491,5.95895 -5.95895,5.95895c-0.00567,0 -0.00946,0.00567 -0.01513,0.00567c-0.00567,0 -0.00946,-0.00567 -0.01702,-0.00567c-3.28594,0 -5.95895,-2.67302 -5.95895,-5.95895v-6.22758c0,-6.98049 -5.67898,-12.65946 -12.65946,-12.65946c-0.13053,0 -0.23647,0.10594 -0.23647,0.23647v12.423c0,6.98049 5.67898,12.65946 12.65946,12.65946c0.00189,0 0.00189,0 0.00378,0h6.19164c0.00567,0 0.00946,-0.00567 0.01702,-0.00567c0.00567,0 0.00946,0.00567 0.01513,0.00567h6.19542c6.98049,0 12.66135,-5.67898 12.66135,-12.65946v-12.42489c0,-6.96724 -5.65628,-12.63487 -12.61595,-12.65757c-0.01513,-0.00378 -0.02648,-0.01892 -0.04351,-0.01892h-6.19542c-0.00567,0 -0.00946,0.00567 -0.01513,0.00567c-0.00567,0 -0.00946,-0.00567 -0.01702,-0.00567c-3.28594,0 -5.95895,-2.67302 -5.95895,-5.95895v-12.44002c0,-3.28594 2.67302,-5.95895 5.95895,-5.95895c0.00567,0 0.00946,-0.00567 0.01702,-0.00567c0.00567,0 0.00946,0.00567 0.01513,0.00567c3.28594,0 5.95895,2.67491 5.95895,5.95895v6.22758c0,6.98049 5.67898,12.66135 12.66136,12.66135c0.13053,0 0.23647,-0.10594 0.23647,-0.23647v-12.42489c-0.00378,-6.98049 -5.68276,-12.66135 -12.66325,-12.66135z" data-paper-data="{&quot;glyphName&quot;:&quot;s&quot;,&quot;glyphIndex&quot;:6,&quot;lastGlyphOfWord&quot;:true,&quot;word&quot;:1}"></path></g><g data-paper-data="{&quot;isIcon&quot;:&quot;true&quot;,&quot;iconType&quot;:&quot;icon&quot;,&quot;rawIconId&quot;:&quot;1479562&quot;,&quot;selectedEffects&quot;:{&quot;container&quot;:&quot;&quot;,&quot;transformation&quot;:&quot;&quot;,&quot;pattern&quot;:&quot;&quot;},&quot;fillRule&quot;:&quot;evenodd&quot;,&quot;bounds&quot;:{&quot;x&quot;:65.00000000000001,&quot;y&quot;:195.02932513706494,&quot;width&quot;:81.21228544759656,&quot;height&quot;:79.94134972587014},&quot;iconStyle&quot;:&quot;standalone&quot;,&quot;suitableAsStandaloneIcon&quot;:true}" fill-rule="evenodd"><path d="M103.00074,198.27019c0,-2.16058 -1.08029,-3.24087 -3.24087,-3.24087h-30.75645c-2.66895,0 -4.00342,1.33447 -4.00342,4.00342v29.99389c0,2.66895 1.33447,4.00342 4.00342,4.00342h29.99389c2.66895,0 4.00342,-1.33447 4.00342,-4.00342zM146.21229,198.27019c0,-2.16058 -1.08029,-3.24087 -3.24087,-3.24087h-30.75645c-2.66895,0 -4.00342,1.33447 -4.00342,4.00342v29.99389c0,2.66895 1.33447,4.00342 4.00342,4.00342h29.99389c2.66895,0 4.00342,-1.33447 4.00342,-4.00342zM98.55249,199.47757h-29.10425v29.10425h29.10425zM141.76404,199.47757h-29.10425v29.10425h29.10425zM103.00074,240.21081c0,-2.16058 -1.08029,-3.24087 -3.24087,-3.24087h-30.75645c-2.66895,0 -4.00342,1.33447 -4.00342,4.00342v29.99389c0,2.66895 1.33447,4.00342 4.00342,4.00342h29.99389c2.66895,0 4.00342,-1.33447 4.00342,-4.00342zM146.21229,240.21081c0,-2.16058 -1.08029,-3.24087 -3.24087,-3.24087h-30.75645c-2.66895,0 -4.00342,1.33447 -4.00342,4.00342v29.99389c0,2.66895 1.33447,4.00342 4.00342,4.00342h29.99389c2.66895,0 4.00342,-1.33447 4.00342,-4.00342zM98.55249,241.41819h-29.10425v29.10425h29.10425zM141.76404,241.41819h-29.10425v29.10425h29.10425z" data-paper-data="{&quot;isPathIcon&quot;:true}"></path></g><path d="M161.53272,275.61641v-81.23282h2.18536v81.23282z" data-paper-data="{&quot;isShapeTextSeparator&quot;:true}" fill-rule="nonzero"></path></g></g><g class="watermark-group" style="opacity:0.040000010281801224"><path class="watermark-path" d="M129.52,370.3a11.88,11.88,0,0,1,2.58,5.58,12,12,0,0,1,.11,3,11.81,11.81,0,0,1-.64,2.93,12.34,12.34,0,0,1-1.41,2.72,11.65,11.65,0,0,1-2.13,2.32,12,12,0,0,1-2.64,1.69,13,13,0,0,1-2.91.9,12.47,12.47,0,0,1-3,.12,12.17,12.17,0,0,1-2.93-.64,11.8,11.8,0,0,1-2.72-1.38,12.19,12.19,0,0,1-4-4.79,11.85,11.85,0,0,1-.89-2.92,12.14,12.14,0,0,1-.13-3,11.54,11.54,0,0,1,.64-2.92,11.67,11.67,0,0,1,3.5-5,11.44,11.44,0,0,1,2.67-1.69,11.64,11.64,0,0,1,2.92-.91,10.71,10.71,0,0,1,3-.12,11.68,11.68,0,0,1,5.66,2,11.7,11.7,0,0,1,2.34,2.12m-1.4,8.76a13,13,0,0,1-1.22,2.32,9.68,9.68,0,0,1-1.81,2,7.44,7.44,0,0,1-2.38,1.37,6.17,6.17,0,0,1-5.11-.46,8.73,8.73,0,0,1-3.85-4.58,6.69,6.69,0,0,1-.34-2.66,6.09,6.09,0,0,1,.77-2.47,7.15,7.15,0,0,1,1.75-2.11,9.58,9.58,0,0,1,1.09-.81,8.23,8.23,0,0,1,1.12-.63,8.14,8.14,0,0,1,1.19-.46,12.71,12.71,0,0,1,1.32-.37l2,2.38a12.83,12.83,0,0,0-1.56.17,7.86,7.86,0,0,0-1.23.32,4.5,4.5,0,0,0-1,.49,6.41,6.41,0,0,0-.93.67,4.49,4.49,0,0,0-1.15,1.39,3.87,3.87,0,0,0-.45,1.58,4.12,4.12,0,0,0,.26,1.63,6.11,6.11,0,0,0,2.36,2.82,4.43,4.43,0,0,0,1.57.53,3.91,3.91,0,0,0,1.62-.17,4.71,4.71,0,0,0,1.57-.89,10.5,10.5,0,0,0,.83-.79,5.71,5.71,0,0,0,.65-.93,10.13,10.13,0,0,0,.54-1.14,12.24,12.24,0,0,0,.44-1.49l2,2.33m-14.46,4.55a8.86,8.86,0,0,0,2.78,2.22,9,9,0,0,0,3.29.94,9.15,9.15,0,0,0,3.39-.37,8.68,8.68,0,0,0,3.11-1.69,8.8,8.8,0,0,0,2.22-2.78,9.15,9.15,0,0,0,1-3.29,8.95,8.95,0,0,0-4.83-8.76,9,9,0,0,0-6.73-.57,9,9,0,0,0-5.33,4.47,8.94,8.94,0,0,0-.57,6.71,8.76,8.76,0,0,0,1.7,3.12"></path><path class="watermark-path" d="M147,349c-.48.12-1.09.31-1.82.57a24.37,24.37,0,0,0-2.4,1A28.35,28.35,0,0,0,140,352a20.72,20.72,0,0,0-2.71,1.94c-.7.59-1.28,1.11-1.74,1.57a15.07,15.07,0,0,0-1.1,1.22,4.09,4.09,0,0,0-.59.92,2.32,2.32,0,0,0-.22.64,1.16,1.16,0,0,0,0,.47,1.83,1.83,0,0,0,.18.29,1.15,1.15,0,0,0,1,.37,5.54,5.54,0,0,0,1.51-.38q.87-.35,1.95-.9l2.26-1.18q1.2-.65,2.49-1.29c.87-.44,1.73-.83,2.59-1.17a18.94,18.94,0,0,1,2.6-.81,9.27,9.27,0,0,1,2.46-.29,6.25,6.25,0,0,1,2.24.49,5.12,5.12,0,0,1,1.89,1.47,6.35,6.35,0,0,1,1.41,2.61,6,6,0,0,1,.09,2.6,8.3,8.3,0,0,1-.9,2.52,17.79,17.79,0,0,1-1.62,2.37,23.92,23.92,0,0,1-2,2.15c-.72.67-1.41,1.29-2.09,1.87a33.79,33.79,0,0,1-5.33,3.7,32.29,32.29,0,0,1-4.91,2.28l-3.61-4.3a21.38,21.38,0,0,0,5.39-1.87,27.2,27.2,0,0,0,5.4-3.56,21.59,21.59,0,0,0,2.38-2.27,8.67,8.67,0,0,0,1.18-1.7,2.32,2.32,0,0,0,.27-1.19,1.34,1.34,0,0,0-.28-.74,1.21,1.21,0,0,0-1-.42,4.32,4.32,0,0,0-1.55.34,15.77,15.77,0,0,0-2,.88c-.72.37-1.48.77-2.27,1.21l-2.45,1.3c-.85.45-1.7.85-2.56,1.21a22.37,22.37,0,0,1-2.54.86,10,10,0,0,1-2.43.32,5.76,5.76,0,0,1-2.2-.45,5,5,0,0,1-1.89-1.45,6.12,6.12,0,0,1-1.31-2.41,6,6,0,0,1-.1-2.41,8.28,8.28,0,0,1,.81-2.38,14.06,14.06,0,0,1,1.49-2.24,22.37,22.37,0,0,1,1.85-2.05q1-1,2-1.77c.7-.59,1.44-1.15,2.23-1.7s1.62-1.06,2.44-1.53,1.63-.91,2.43-1.3,1.58-.75,2.3-1L147,349"></path><path class="watermark-path" d="M186.76,337.57l-10.6-12.63,3.92,18.24-4.66,3.91-17.27-7,10.6,12.63-4.86,4.07-15.09-18,6.59-5.54,18.69,7.52-4.15-19.71,6.57-5.52,15.09,18-4.83,4.05"></path><path class="watermark-path" d="M208.84,313.24l-10,8.42,1.16,4.82L194.56,331l-5.68-25.89,5.42-4.55,24.51,10.09-5.42,4.55-4.55-2m-11.23,3.45,6.57-5.52-8.83-3.87,2.26,9.39"></path><path class="watermark-path" d="M227.49,281.38c-.48.12-1.09.31-1.82.57a24.37,24.37,0,0,0-2.4,1,26.11,26.11,0,0,0-2.7,1.47,20.72,20.72,0,0,0-2.71,1.94c-.7.59-1.28,1.11-1.74,1.57a13.39,13.39,0,0,0-1.1,1.22,4.29,4.29,0,0,0-.59.91,2.48,2.48,0,0,0-.22.65,1.16,1.16,0,0,0,0,.47,1.83,1.83,0,0,0,.18.29,1.15,1.15,0,0,0,1,.37,5.54,5.54,0,0,0,1.51-.38q.87-.34,2-.9l2.26-1.18q1.2-.64,2.49-1.29c.87-.44,1.73-.83,2.59-1.17a18.94,18.94,0,0,1,2.6-.81,9.27,9.27,0,0,1,2.46-.29,6.08,6.08,0,0,1,2.24.49,5.09,5.09,0,0,1,1.89,1.46,6.47,6.47,0,0,1,1.41,2.61,6.07,6.07,0,0,1,.09,2.61,8.3,8.3,0,0,1-.9,2.52,16.32,16.32,0,0,1-1.63,2.36,21.41,21.41,0,0,1-2,2.16c-.72.67-1.41,1.29-2.1,1.86a33.36,33.36,0,0,1-5.32,3.71,31.92,31.92,0,0,1-4.92,2.28l-3.6-4.3a21.38,21.38,0,0,0,5.39-1.87,27.2,27.2,0,0,0,5.4-3.56,21.59,21.59,0,0,0,2.38-2.27,8.67,8.67,0,0,0,1.18-1.7A2.32,2.32,0,0,0,231,293a1.34,1.34,0,0,0-.28-.74,1.21,1.21,0,0,0-1-.42,4.32,4.32,0,0,0-1.55.34,16.54,16.54,0,0,0-2,.88c-.71.37-1.47.77-2.26,1.21l-2.46,1.3c-.84.44-1.7.85-2.55,1.21a24.53,24.53,0,0,1-2.54.86A10,10,0,0,1,214,298a5.76,5.76,0,0,1-2.2-.45,5,5,0,0,1-1.89-1.45,6.12,6.12,0,0,1-1.31-2.41,5.78,5.78,0,0,1-.1-2.41,8,8,0,0,1,.81-2.38,14.61,14.61,0,0,1,1.49-2.25,22.26,22.26,0,0,1,1.85-2q1-1,2-1.77c.7-.59,1.44-1.15,2.23-1.7s1.62-1.06,2.44-1.53,1.63-.91,2.43-1.31,1.58-.74,2.3-1l3.5,4.16"></path><path class="watermark-path" d="M261.64,274.74l-6.29-7.5L243,277.61l6.3,7.5-4.86,4.07-15.09-18,4.85-4.08,5.49,6.55L252,263.3l-5.49-6.55,4.86-4.07,15.09,18-4.86,4.08"></path><path class="watermark-path" d="M272.18,265.9l-15.09-18,4.86-4.08,15.09,18-4.86,4.08"></path><path class="watermark-path" d="M299.65,242.85l-22.51-2.18L287.51,253l-4.85,4.08-15.1-18,5.28-4.43,22.56,2.22L285,224.5l4.83-4.06,15.09,18-5.26,4.42"></path><path class="watermark-path" d="M306.68,205.52a31.88,31.88,0,0,1,5.29-3.66,34.48,34.48,0,0,1,5.14-2.35l3.69,4.39a20.77,20.77,0,0,0-2.37.61,20.47,20.47,0,0,0-2.61,1,25.12,25.12,0,0,0-2.76,1.49,23.9,23.9,0,0,0-2.8,2,20.42,20.42,0,0,0-2.8,2.77,12.77,12.77,0,0,0-1.64,2.52,7,7,0,0,0-.68,2.24,6,6,0,0,0,.66,3.64,8.16,8.16,0,0,0,.94,1.38,9.12,9.12,0,0,0,1.08,1.07,6.39,6.39,0,0,0,1.47.91,6.73,6.73,0,0,0,1.88.48,6.54,6.54,0,0,0,2.28-.18,11.67,11.67,0,0,0,2.74-1.07,19.38,19.38,0,0,0,3.18-2.22c.57-.48,1.06-.92,1.46-1.31a14.57,14.57,0,0,0,1-1.13,11.46,11.46,0,0,0,.81-1.05l.74-1.09-1.82-2.17-5.45,4.57-3.31-3.94,10.31-8.65,7.71,9.19a29,29,0,0,1-1.67,2.43q-1,1.26-2.1,2.52c-.74.84-1.5,1.65-2.3,2.44s-1.58,1.5-2.33,2.14a31,31,0,0,1-3.59,2.61,22.55,22.55,0,0,1-3.64,1.83,15.64,15.64,0,0,1-3.63.89,10.72,10.72,0,0,1-3.49-.15,10.45,10.45,0,0,1-3.28-1.33,12.54,12.54,0,0,1-3-2.67,12,12,0,0,1-2.08-3.44,10.45,10.45,0,0,1-.71-3.5,11.14,11.14,0,0,1,.51-3.51,15.72,15.72,0,0,1,1.56-3.43,21.62,21.62,0,0,1,2.42-3.28,30.3,30.3,0,0,1,3.15-3"></path><path class="watermark-path" d="M336.91,211.59l-15.1-18,4.86-4.08,11.79,14,13.13-11,3.31,3.94-18,15.1"></path><path class="watermark-path" d="M374.54,164.71a12.28,12.28,0,0,1,2.59,4.81,10.44,10.44,0,0,1,0,5,14.62,14.62,0,0,1-2.33,5,25.55,25.55,0,0,1-4.56,4.85,26.07,26.07,0,0,1-5.6,3.67,14.79,14.79,0,0,1-5.38,1.43,10.43,10.43,0,0,1-4.94-.89,13.24,13.24,0,0,1-6.87-8.18,10.48,10.48,0,0,1,0-5,14.51,14.51,0,0,1,2.36-5,25.23,25.23,0,0,1,4.57-4.89,25,25,0,0,1,5.59-3.64,14.45,14.45,0,0,1,5.35-1.43,10.31,10.31,0,0,1,4.93.92,12.22,12.22,0,0,1,4.28,3.38m-4.91,4.11a8.36,8.36,0,0,0-2-1.72,5.5,5.5,0,0,0-2.65-.85,7.72,7.72,0,0,0-3.32.57,14.49,14.49,0,0,0-4,2.52,16.72,16.72,0,0,0-2.38,2.4,10.15,10.15,0,0,0-1.39,2.24,6.71,6.71,0,0,0-.56,2.1,5.69,5.69,0,0,0,.1,1.9,6.21,6.21,0,0,0,.61,1.69,9.85,9.85,0,0,0,1,1.44,10.48,10.48,0,0,0,1.26,1.23,6.67,6.67,0,0,0,1.57.92,6.1,6.1,0,0,0,1.85.41,6.8,6.8,0,0,0,2.15-.2,11.06,11.06,0,0,0,2.45-1,17.67,17.67,0,0,0,2.77-1.94,14.39,14.39,0,0,0,3.18-3.52,7.74,7.74,0,0,0,1.14-3.17,5.54,5.54,0,0,0-.37-2.74,8.52,8.52,0,0,0-1.36-2.3"></path><path class="watermark-path" d="M382.66,141.76A32.3,32.3,0,0,1,388,138.1a34.12,34.12,0,0,1,5.15-2.35l3.69,4.4a19.62,19.62,0,0,0-2.37.6,22.08,22.08,0,0,0-2.61,1,26,26,0,0,0-2.77,1.49,23.9,23.9,0,0,0-2.8,2,21,21,0,0,0-2.8,2.78,13.19,13.19,0,0,0-1.64,2.51,7.29,7.29,0,0,0-.68,2.24,6.36,6.36,0,0,0,.06,2,5.8,5.8,0,0,0,.61,1.68,8.12,8.12,0,0,0,.93,1.38,9.16,9.16,0,0,0,1.08,1.08,6.56,6.56,0,0,0,1.48.9,6,6,0,0,0,1.87.48,6.76,6.76,0,0,0,2.28-.17,12,12,0,0,0,2.74-1.08,18.57,18.57,0,0,0,3.18-2.22c.58-.48,1.06-.92,1.46-1.31s.75-.77,1.05-1.12.57-.72.81-1.06l.73-1.09-1.82-2.17-5.45,4.57-3.3-3.94,10.3-8.65,7.71,9.19a29,29,0,0,1-1.67,2.43q-1,1.26-2.1,2.52c-.73.84-1.5,1.66-2.3,2.44s-1.57,1.5-2.33,2.14a31,31,0,0,1-3.59,2.61,22.15,22.15,0,0,1-3.64,1.83,15.56,15.56,0,0,1-3.62.89,11,11,0,0,1-3.49-.14,10.84,10.84,0,0,1-3.28-1.33,12.82,12.82,0,0,1-3-2.68,12.12,12.12,0,0,1-2.08-3.43A10.71,10.71,0,0,1,375,155a11.18,11.18,0,0,1,.51-3.51,15.51,15.51,0,0,1,1.57-3.43,21.44,21.44,0,0,1,2.42-3.28,30.19,30.19,0,0,1,3.14-3"></path><path class="watermark-path" d="M428.63,119.31a12.26,12.26,0,0,1,2.59,4.82,10.44,10.44,0,0,1,0,5,14.53,14.53,0,0,1-2.34,5,25.29,25.29,0,0,1-4.56,4.86,26,26,0,0,1-5.59,3.67,14.84,14.84,0,0,1-5.38,1.43,10.61,10.61,0,0,1-4.95-.89,12.15,12.15,0,0,1-4.3-3.37,12,12,0,0,1-2.56-4.81,10.48,10.48,0,0,1,0-5,14.39,14.39,0,0,1,2.35-5,27.89,27.89,0,0,1,10.16-8.53,14.49,14.49,0,0,1,5.36-1.43,10.27,10.27,0,0,1,4.92.92,12.21,12.21,0,0,1,4.28,3.37m-4.91,4.12a8.17,8.17,0,0,0-2-1.72,5.58,5.58,0,0,0-2.65-.86,7.86,7.86,0,0,0-3.31.58,14.49,14.49,0,0,0-4,2.52,16.21,16.21,0,0,0-2.38,2.4,9.85,9.85,0,0,0-1.4,2.24,7,7,0,0,0-.56,2.1,6,6,0,0,0,.1,1.9,6.23,6.23,0,0,0,.62,1.69,8.49,8.49,0,0,0,1,1.44,9.18,9.18,0,0,0,1.26,1.23,6.67,6.67,0,0,0,1.57.92,6,6,0,0,0,1.84.41,6.86,6.86,0,0,0,2.16-.2,11.26,11.26,0,0,0,2.45-1,17.62,17.62,0,0,0,2.76-1.94,14.67,14.67,0,0,0,3.19-3.52,7.71,7.71,0,0,0,1.13-3.17,5.53,5.53,0,0,0-.36-2.74,8.55,8.55,0,0,0-1.37-2.3"></path></g></svg>